inDegrees=no
num_controls=7
num_derivatives=13
num_iterations=104
num_multipliers=7
num_parameters=0
num_slacks=7
num_states=26
objective=5.832406
objective_accelerations=0.277560
objective_balance=0.065617
objective_effort=0.375958
objective_height=5.047090
objective_ligament=0.066181
solver_duration=897.033110
status=Solve_Succeeded
success=true
DataType=double
version=3
OpenSimVersion=4.4-2022-07-23-0e9fedc
endheader
time	/jointset/ground_pelvis/pelvis_tilt/value	/jointset/ground_pelvis/pelvis_tx/value	/jointset/ground_pelvis/pelvis_ty/value	/jointset/hip_r/hip_flexion_r/value	/jointset/hip_r/hip_adduction_r/value	/jointset/hip_r/hip_rotation_r/value	/jointset/back/lumbar_extension/value	/jointset/patellofemoral_r/patellar_flexion_r/value	/jointset/knee_r/knee_flexion_r/value	/jointset/knee_r/knee_adduction_r/value	/jointset/knee_r/knee_rotation_r/value	/jointset/ankle_r/ankle_angle_r/value	/jointset/subtalar_r/subtalar_angle_r/value	/jointset/ground_pelvis/pelvis_tilt/speed	/jointset/ground_pelvis/pelvis_tx/speed	/jointset/ground_pelvis/pelvis_ty/speed	/jointset/hip_r/hip_flexion_r/speed	/jointset/hip_r/hip_adduction_r/speed	/jointset/hip_r/hip_rotation_r/speed	/jointset/back/lumbar_extension/speed	/jointset/patellofemoral_r/patellar_flexion_r/speed	/jointset/knee_r/knee_flexion_r/speed	/jointset/knee_r/knee_adduction_r/speed	/jointset/knee_r/knee_rotation_r/speed	/jointset/ankle_r/ankle_angle_r/speed	/jointset/subtalar_r/subtalar_angle_r/speed	/forceset/tau_hip_flexion_r	/forceset/tau_hip_adduction_r	/forceset/tau_hip_rotation_r	/forceset/tau_knee_flexion_r	/forceset/tau_ankle_angle_r	/forceset/tau_subtalar_angle_r	/forceset/tau_lumbar_extension	lambda_cid13_p0	lambda_cid14_p0	lambda_cid14_p1	lambda_cid14_p2	lambda_cid14_p3	lambda_cid14_p4	lambda_cid14_p5	/jointset/ground_pelvis/pelvis_tilt/accel	/jointset/ground_pelvis/pelvis_tx/accel	/jointset/ground_pelvis/pelvis_ty/accel	/jointset/hip_r/hip_flexion_r/accel	/jointset/hip_r/hip_adduction_r/accel	/jointset/hip_r/hip_rotation_r/accel	/jointset/back/lumbar_extension/accel	/jointset/patellofemoral_r/patellar_flexion_r/accel	/jointset/knee_r/knee_flexion_r/accel	/jointset/knee_r/knee_adduction_r/accel	/jointset/knee_r/knee_rotation_r/accel	/jointset/ankle_r/ankle_angle_r/accel	/jointset/subtalar_r/subtalar_angle_r/accel	gamma_cid13_p0	gamma_cid14_p0	gamma_cid14_p1	gamma_cid14_p2	gamma_cid14_p3	gamma_cid14_p4	gamma_cid14_p5
1.5	-0.05618016932262339	0.09617418112313125	0.8947874256901344	0.5049326651290843	-0.2248055851278395	-0.1649397594899234	-0.2553407404406201	0.5431872932527213	0.5431872932525755	0.05272440950044036	0.1745125771116846	0.2617784161092116	0.06378215030456717	0.09290794425102043	0.05783511642657273	0.2237294380612573	-1.028479349356686	0.01668722407410237	-0.2378966643503184	0.6931095156748176	-1.468042109257946	-1.468042109257709	0.2596477112730792	2.657793774015464e-05	-0.6155513780358912	-0.1590413261379575	-0.02753311871505521	-0.01086014354932364	0.002939430966599772	-0.2889133529227039	0.009918606354225637	-0.01286990929760289	0.09470211721845245	-38.97603410355288	-39.02024776071665	-7.812004842380189	-3.559810097460704	10.34452487271279	-670.4167041272192	55.0195316312725	-0.0669006819564924	0.03282571829352785	-0.3362056718470273	-0.3477665062809701	-0.02862528922954914	-0.4855449569966789	0.830581676509261	-0.817700659471302	-0.8177006594712989	0.3266652617407251	-0.01313565328239084	-0.5137128156666794	-0.05445873591784899	1.001803878507627e-07	8.017628790446832e-08	-8.175206613515516e-07	8.521495120451179e-07	4.674599701493743e-08	7.038420255981401e-08	-9.943795080974697e-07
1.51	-0.05525480975926764	0.09675406370541279	0.8970073825987576	0.4946321589814035	-0.2246408127623577	-0.1673427320735627	-0.2483688257623679	0.5284682186404426	0.5284682186405353	0.05533844400616966	0.1745128109371609	0.2555978964110872	0.06218833389702472	0.09215180068370568	0.05812880444838506	0.2202166133048038	-1.03147328923422	0.01626503258710357	-0.2426800916460518	0.7011697132333192	-1.475556629065143	-1.475556629064922	0.2631441125805248	1.67113608908978e-05	-0.6204665052548495	-0.1596979030673006	-0.02308803057444016	-0.01276598208869139	0.00244234846664909	-0.2865731751540081	0.01487519737352353	-0.01390312332436812	0.0904349751243804	-39.50944948513156	-37.38009853467197	-7.900317473250558	-3.629381184531117	9.771589314473538	-668.3480727664729	55.10701297478722	-0.08178752634576886	0.02576267410214512	-0.3656047788719971	-0.2529096910447649	-0.04928534761405073	-0.4719193039016782	0.7781827843935722	-0.6859224737081306	-0.6859224737106682	0.3587931236182799	0.004709984757568167	-0.4674843918760673	-0.06769529478178721	1.081561148442647e-07	8.222705849143246e-08	-9.108861816623315e-07	8.737439080803394e-07	5.439550876112846e-08	7.558367770192193e-08	-1.058268477896016e-06
1.52	-0.0543373748980193	0.09733650763390773	0.8991908544795506	0.4843061730424448	-0.2244803161655557	-0.1697929744677791	-0.2413194203107575	0.5136804798635699	0.5136804798639721	0.05798697563664328	0.1745128705259018	0.2493708110974003	0.06058866409552356	0.09132300382730286	0.05834738566925812	0.2164324324953077	-1.03357530761397	0.01583207033290664	-0.2473506264633885	0.7086076703467412	-1.481774942166908	-1.481774942166705	0.2665471362228226	-8.269430211790086e-06	-0.6248645011484314	-0.1602120049302082	-0.01864294243382681	-0.01467182062799094	0.00194526596727331	-0.2842329973853237	0.01983178839284358	-0.01493633735104813	0.08616783303028507	-40.0057697111712	-35.74988863013984	-7.986465672861305	-3.703758042487445	9.202831105723147	-666.4430580834309	55.260349563445	-0.08143133977400489	0.01780435810565255	-0.3904768824555503	-0.1693822067241418	-0.03077944266917933	-0.462966461317331	0.7061335874934399	-0.5584593183850347	-0.5584593183850391	0.3079897287111475	-0.01615849613305716	-0.4102865505914376	-0.02596372263073441	1.167998131561629e-07	8.550917081510901e-08	-1.012683209714099e-06	8.986955833505868e-07	6.15528953687559e-08	8.751954418567082e-08	-1.12711077633293e-06
1.53	-0.05342850060790389	0.09792076386130527	0.9013351971902436	0.4739634539088113	-0.2243242248683992	-0.172289622863001	-0.2341989070515643	0.4988369653888302	0.4988369653890384	0.06066902736492877	0.1745128524716636	0.2431023135775901	0.0589845330921575	0.09043724675518085	0.05849095497403029	0.2123952180268595	-1.034815322747749	0.01538658295483361	-0.2519643040515294	0.7153876903235611	-1.486707051503051	-1.4867070515029	0.2698399142390229	5.163278184057825e-06	-0.6287450204335122	-0.1605871363292209	-0.01407546488493976	-0.01674008789764469	0.001439169379287199	-0.2821054495149421	0.02514901858871303	-0.01610756541878806	0.08182972176281715	-40.46478555133007	-34.01496623945142	-8.121478724177111	-3.762051575096313	8.570381627727139	-664.6075151582315	55.36845844962952	-0.0943305383975505	0.01071183896196064	-0.4164541045888536	-0.0783221953359175	-0.05132750055218639	-0.4581791397727116	0.6478425277264463	-0.4274777819343178	-0.4274777819423053	0.3363277291050789	0.010324049204212	-0.3634120162564868	-0.03930338737304847	1.261532309938572e-07	9.009958373404245e-08	-1.123438714740666e-06	9.272143678080491e-07	6.818739901665954e-08	1.066128264699132e-07	-1.201215986448108e-06
1.54	-0.05252892041798796	0.09850607150621013	0.9034379456811424	0.463612932418127	-0.2241725672680258	-0.1748319301805618	-0.2270138123276126	0.4839507516126031	0.4839507516126033	0.06338328805163515	0.1745130147234427	0.2367977153851716	0.05737744766703678	0.08946418378437927	0.05855766917072545	0.2081135885365158	-1.035135779026795	0.01494533096968959	-0.2564824109280682	0.7215239632983894	-1.49031480246741	-1.490314802467312	0.2729889278964204	2.779178172009894e-05	-0.6320846356701924	-0.1608028892816886	-0.009507987336038706	-0.01880835516724279	0.0009330727910637946	-0.2799779016445354	0.03046624878460837	-0.01727879348644532	0.0774916104953423	-40.88555443064171	-32.28776942185479	-8.253589487945927	-3.825668564796604	7.937480906047565	-662.9034680815201	55.54278262133334	-0.09889251950979176	0.002433336490209935	-0.4393598868346315	0.0145295642221487	-0.02993236408333979	-0.4438523189969119	0.5773841870952499	-0.2935876440284146	-0.2935876440284345	0.2792368569505593	-0.01431933710499083	-0.3021057409113628	0.005911966678258313	1.350752569381332e-07	9.461696530331658e-08	-1.22513534645002e-06	9.532221361971296e-07	7.395287051387948e-08	1.253573054221588e-07	-1.26739201091603e-06
1.55	-0.05163936629621481	0.09909167752704558	0.9054967312545832	0.4532635564808933	-0.2240253528689394	-0.1774189589725304	-0.2197706892990095	0.469035001954731	0.4690350019546089	0.06612844275637708	0.1745135087392194	0.2304624178968184	0.05576892859211145	0.0884349288765878	0.05855172409035417	0.2036078197091688	-1.034589913911657	0.01449591232006888	-0.2608903185230567	0.726993933718676	-1.492610677345565	-1.492610677345555	0.2760268622949252	6.072291332849289e-05	-0.6348803801254668	-0.1608771248796376	-0.004936044021082317	-0.02103792430614635	0.0004184951648184847	-0.2779502872884569	0.03595675282264974	-0.018543228821877	0.07318186151270434	-41.26735403738427	-30.51620421079822	-8.42160236460774	-3.8799165275462	7.270580803176803	-661.3187977776814	55.68916953148946	-0.106690650081493	-0.003863793623970947	-0.4615105689902719	0.09704879257964653	-0.05266114372560619	-0.4341132955062141	0.5157971641683951	-0.1639492817707859	-0.1639492817839371	0.313676991594481	0.01072049824495537	-0.2541069251923951	-0.01061924434654174	1.43500244396514e-07	9.905020205667891e-08	-1.316394580641716e-06	9.763367773769879e-07	7.871706583748562e-08	1.436999022744951e-07	-1.324432234529508e-06
1.56	-0.05076045445823636	0.0996768730244125	0.9075093941020898	0.4429241259563118	-0.2238826755619759	-0.1800490375036181	-0.2124760678272682	0.4541030211736691	0.4541030211734283	0.0689034978572089	0.1745140562982789	0.2241020033384418	0.05416036157694636	0.08733572702205855	0.05847556447702249	0.1988890433496997	-1.033146696499738	0.01403791253744305	-0.2650923587482907	0.7318236519258842	-1.493561027106185	-1.493561027106262	0.2789690071051646	3.850044299157825e-05	-0.6371080496750138	-0.1608124773301844	-0.000364100706094118	-0.02326749344500164	-9.608246152149247e-05	-0.2759226729323489	0.04144725686071647	-0.0198076641572395	0.06887211253007258	-41.60984446419728	-28.7502835614921	-8.586268455697335	-3.939650469623782	6.59853724135951	-659.8352690397887	55.90103473335471	-0.1128819088571917	-0.01160957010193458	-0.4819613932590436	0.1940000235782283	-0.03164859068431961	-0.4026788450460308	0.4493337444797166	-0.02448262052139745	-0.02448262052139753	0.2600789392974054	-0.02535005749403312	-0.1884907597659675	0.033688596158696	1.537776852638763e-07	1.03775707572786e-07	-1.429916334188392e-06	1.002676325956561e-06	8.530881300847673e-08	1.650564470932572e-07	-1.393271534836557e-06
1.57	-0.04989279453166867	0.100260936821796	0.9094738794916157	0.4326034396359897	-0.2237446724141836	-0.1827204275421971	-0.2051366500412442	0.4391681474151927	0.439168147415043	0.07170751227641917	0.1745144318297931	0.2177220702643536	0.05255305091594582	0.08617963419723471	0.05832279064096595	0.193976838812649	-1.030831087410158	0.01356075362093959	-0.2691521987315429	0.7359380772376635	-1.493184941695425	-1.493184941695445	0.2818157316899169	3.045497797407552e-05	-0.6387845945952673	-0.1606277836852546	0.004460248017763772	-0.02567919144029433	-0.0006474993218388278	-0.2743401288948709	0.04748366862549898	-0.02128126355215153	0.06438303089831912	-41.91303697145614	-26.82918012790924	-8.824497862034102	-3.976353563259396	5.862050055332163	-658.4964752084936	56.0415374322714	-0.1194591588206566	-0.01925208532312311	-0.5004884161838282	0.2742729739239591	-0.0560389069783075	-0.4024051458886327	0.3742227185479413	0.102936831533204	0.1029368315415796	0.2940888619291625	0.01072374043874431	-0.1431045117922189	0.01400459689400068	1.663706928924656e-07	1.088665490423242e-07	-1.571266236928796e-06	1.033047008785778e-06	9.418499998869906e-08	1.901804268700515e-07	-1.476859681010572e-06
1.58	-0.04903719277123792	0.1008430447218256	0.9113883151493206	0.422310695731041	-0.2236114987284895	-0.1854313696948117	-0.197759742843297	0.4242438910527597	0.4242438910527203	0.07453941787032853	0.1745145780129056	0.2113281981103355	0.05094821616104387	0.08492409379134142	0.05808438500624101	0.188879096985503	-1.027558213429563	0.01307202011057816	-0.2730027815517332	0.7393215343102776	-1.491437547898321	-1.491437547898285	0.2845472420292354	-7.369229262093159e-06	-0.639895865661003	-0.1603172961109625	0.00928459674172096	-0.02809088943548165	-0.001198916182314626	-0.2727575848573285	0.05352008039033401	-0.0227548629469158	0.05989394926660726	-42.17732863544602	-24.9111138395315	-9.058295284475674	-4.019433705995766	5.114189047240306	-657.2219604389134	56.2477051057195	-0.1327714250708829	-0.02873592983570727	-0.5190688512781052	0.3854530017811409	-0.03396350945584201	-0.3608274124336313	0.3031400966468201	0.2497790567472413	0.2497790567472442	0.2370360902105872	-0.03130580593776483	-0.0754359888625611	0.05884738203117189	1.758481690687454e-07	1.137292122726815e-07	-1.675687462132766e-06	1.054526179369898e-06	9.939507713107987e-08	2.180716465956271e-07	-1.535832201411077e-06
